<?xml version="1.0" standalone="no"?>
<!DOCTYPE svg PUBLIC "-//W3C//DTD SVG 20010904//EN"
 "http://www.w3.org/TR/2001/REC-SVG-20010904/DTD/svg10.dtd">
<svg version="1.0" xmlns="http://www.w3.org/2000/svg"
 width="261.000000pt" height="261.000000pt" viewBox="0 0 261.000000 261.000000"
 preserveAspectRatio="xMidYMid meet">
<metadata>
Created by potrace 1.11, written by Peter Selinger 2001-2013
</metadata>
<g transform="translate(0.000000,261.000000) scale(0.100000,-0.100000)"
fill="#000000" stroke="none">
<path d="M1352 2599 c-382 -32 -744 -191 -987 -434 -261 -261 -382 -594 -354
-970 40 -533 438 -975 1019 -1134 182 -49 242 -56 510 -56 241 0 262 2 385 28
175 38 291 78 404 140 117 65 179 119 218 194 46 86 63 164 63 290 0 172 -37
281 -132 388 -129 144 -286 218 -718 336 -361 100 -481 149 -571 239 -73 72
-93 129 -87 244 3 65 10 91 33 134 78 144 277 236 535 249 188 9 338 -24 450
-99 121 -82 122 -82 176 -82 41 1 64 9 110 37 83 50 105 76 106 124 1 55 -14
77 -85 130 -178 131 -449 218 -751 243 -143 11 -175 11 -324 -1z m-628 -629
c-18 -71 -18 -240 1 -313 44 -168 160 -299 350 -394 90 -46 209 -86 535 -179
338 -96 451 -144 529 -222 62 -62 85 -126 85 -242 0 -133 -33 -173 -203 -245
-207 -88 -454 -116 -700 -79 -280 41 -546 187 -706 387 -281 351 -293 829 -31
1185 51 68 143 168 150 161 2 -2 -2 -29 -10 -59z"/>
</g>
</svg>
