<svg id="Laag_1" data-name="Laag 1" xmlns="http://www.w3.org/2000/svg" viewBox="0 0 260 260"><defs><style>.cls-1{fill:#384357;}</style></defs><title>favicon</title><path class="cls-1" d="M561.49,351.06a11.53,11.53,0,0,0,3.3-4.68,33,33,0,0,0,1.65-5.77v-.07a11,11,0,0,0-4.72-11.24l-1.36-.95c-5.58-3.89-13.93-3.75-19,.58a108.94,108.94,0,0,1-29,17.71q-21.47,8.91-48.83,8.91-25.25,0-46.09-8a110.81,110.81,0,0,1-35.78-21.83,99.23,99.23,0,0,1-23.36-32.49,97,97,0,0,1-8.41-40.35,93.75,93.75,0,0,1,8.41-38.95,101.74,101.74,0,0,1,23.57-32.84,115.06,115.06,0,0,1,36-22.53,121.18,121.18,0,0,1,45.66-8.39,115.34,115.34,0,0,1,41.25,7.51,85.68,85.68,0,0,1,25.54,15c4.83,4.14,12.67,4.56,18.29,1.17l7.56-4.55c7-4.24,7.94-12.77,1.75-17.84A109.89,109.89,0,0,0,521.8,132a187.85,187.85,0,0,0-58.3-9.08q-33.25,0-61,10.14t-48,27.6a123.15,123.15,0,0,0-31.36,41.22,118.47,118.47,0,0,0-11.15,51q0,28.3,11.58,52.05a124.91,124.91,0,0,0,32,41Q376,363.24,403.74,373a178.81,178.81,0,0,0,59.76,9.78q35.77,0,64.19-10.48a122.64,122.64,0,0,0,23.71-11.79,14,14,0,0,0,2.81-2.41A79.63,79.63,0,0,1,561.49,351.06Z" transform="translate(-311.99 -122.89)"/><path class="cls-1" d="M563.14,349.79A52.68,52.68,0,0,0,569.41,336c.23-.84.38-1.69.66-2.51A65.46,65.46,0,0,0,572,317.65q0-18.16-7.37-30.22a62.77,62.77,0,0,0-19.78-20.09,120.87,120.87,0,0,0-28.62-13.28q-16.21-5.24-33.46-9.78a304.45,304.45,0,0,1-29.88-9.08q-12.22-4.54-19.36-9.78a32.22,32.22,0,0,1-10.31-11.7A33.37,33.37,0,0,1,420,198.87,32.71,32.71,0,0,1,425.51,180,40.52,40.52,0,0,1,440,167.08a76.73,76.73,0,0,1,20.41-7.34,110,110,0,0,1,23.15-2.44,88.48,88.48,0,0,1,30.72,5.42,52.33,52.33,0,0,1,16.11,9.3,16,16,0,0,0,18.15,1.63l6.89-4.11c7.33-4.37,7.92-13.22,1.27-18.29-8.46-6.45-17.84-11.86-27.06-14.73q-20.83-6.45-46.09-6.46a155.28,155.28,0,0,0-37.88,4.54A112.84,112.84,0,0,0,413.31,148a70.61,70.61,0,0,0-22.73,22.18q-8.43,13.28-8.42,31.09,0,15.37,5.69,26.37a57.55,57.55,0,0,0,15.57,18.87,92.77,92.77,0,0,0,23.35,13.27,246,246,0,0,0,29.46,9.61l34.51,9.78a122.13,122.13,0,0,1,24.41,9.43q9.68,5.24,14.31,12.4t4.63,18.69c0,7,0,11.36-4,16.71s-10.19,6.75-16.35,10.36-13.8,4.57-21.52,6.43a100.29,100.29,0,0,1-23.33,2.68c-12.91,0-20.38.44-32.62-2.68-10.71-2.73-15.46-3-28.58-9.51a16.47,16.47,0,0,0-17,1.49l-4.18,3.24c-7,5.46-5.61,15,2.8,18.89,2,.92,4.2,1.82,7.33,3,7.9,3.07,14.39,4.11,22.38,6.79s15.83,3,24.53,4.29A132,132,0,0,0,466,382.89a177.73,177.73,0,0,0,39.59-4.29c12.63-2.91,24.75-5.85,34.43-11.79S557.25,358.87,563.14,349.79Z" transform="translate(-311.99 -122.89)"/></svg>