<svg id="Laag_1" data-name="Laag 1" xmlns="http://www.w3.org/2000/svg" xmlns:xlink="http://www.w3.org/1999/xlink" viewBox="0 0 300.6 300.29"><defs><style>.cls-1{fill:none;}.cls-2{fill:#384357;}.cls-3{clip-path:url(#clip-path);}.cls-4{fill:#f1c3cd;}</style><clipPath id="clip-path" transform="translate(-251.38 -167.03)"><rect class="cls-1" x="251.92" y="166.73" width="300.06" height="272.04"/></clipPath></defs><title>logostudiocaleido</title><rect class="cls-2" width="300.6" height="300.29"/><g class="cls-3"><path class="cls-4" d="M466.63,368a7.25,7.25,0,0,0,1.68-2.87,23.49,23.49,0,0,0,.84-3.55v0a7.44,7.44,0,0,0-2.41-6.91l-.69-.58a7.16,7.16,0,0,0-9.71.35,57.12,57.12,0,0,1-63.26,11.43,55.92,55.92,0,0,1-18.26-13.43,62,62,0,0,1-11.92-20,70.22,70.22,0,0,1-4.29-24.81,67.79,67.79,0,0,1,4.29-23.95,63.65,63.65,0,0,1,12-20.19,58.44,58.44,0,0,1,18.37-13.85,52.69,52.69,0,0,1,23.3-5.16,50.12,50.12,0,0,1,21.06,4.62,42.86,42.86,0,0,1,13,9.22A7.16,7.16,0,0,0,460,259l3.86-2.8a7.23,7.23,0,0,0,.89-11,53.94,53.94,0,0,0-18.42-12,81.07,81.07,0,0,0-29.75-5.58A75.26,75.26,0,0,0,345,276.28a85.56,85.56,0,0,0-5.69,31.36,84.55,84.55,0,0,0,5.91,32,76.59,76.59,0,0,0,16.33,25.24,75.09,75.09,0,0,0,24.6,16.65,77.33,77.33,0,0,0,30.5,6q18.26,0,32.76-6.45a59.12,59.12,0,0,0,12.1-7.25,7.61,7.61,0,0,0,1.44-1.48,45.46,45.46,0,0,1,3.72-4.34" transform="translate(-251.38 -167.03)"/><path class="cls-4" d="M467.47,367.24a35.91,35.91,0,0,0,3.2-8.49c.12-.51.19-1,.34-1.54a48.15,48.15,0,0,0,1-9.73q0-11.17-3.76-18.58a36.22,36.22,0,0,0-10.1-12.35,57.47,57.47,0,0,0-14.61-8.16q-8.27-3.22-17.08-6a136.45,136.45,0,0,1-15.25-5.59,39,39,0,0,1-9.88-6,19.2,19.2,0,0,1-5.26-7.2,24.11,24.11,0,0,1-1.61-9.13,23.18,23.18,0,0,1,2.79-11.6,22.55,22.55,0,0,1,7.41-7.95,35.1,35.1,0,0,1,10.42-4.51,47,47,0,0,1,11.81-1.5,38.39,38.39,0,0,1,15.68,3.33,26.06,26.06,0,0,1,8.22,5.72,7.09,7.09,0,0,0,9.26,1l3.52-2.53a7.26,7.26,0,0,0,.65-11.25c-4.32-4-9.1-7.29-13.81-9.06a70.09,70.09,0,0,0-42.86-1.18A52.75,52.75,0,0,0,391,243.19a39.16,39.16,0,0,0-15.9,32.76,41,41,0,0,0,2.9,16.22,34.81,34.81,0,0,0,7.95,11.6,46.11,46.11,0,0,0,11.92,8.16,111.3,111.3,0,0,0,15,5.91l17.62,6a56.43,56.43,0,0,1,12.46,5.8,21.13,21.13,0,0,1,7.31,7.62q2.36,4.41,2.36,11.5c0,4.29,0,7-2,10.28s-5.2,4.15-8.35,6.37-7,2.81-11,4A42.93,42.93,0,0,1,419.4,371c-6.59,0-10.4.27-16.65-1.65-5.47-1.68-7.89-1.82-14.59-5.85a7.24,7.24,0,0,0-8.66.92l-2.13,2A7.24,7.24,0,0,0,378.8,378c1,.57,2.15,1.12,3.74,1.87,4,1.89,7.34,2.53,11.42,4.17s8.08,1.85,12.52,2.64a56.14,56.14,0,0,0,11.42.88A76,76,0,0,0,438.11,385c6.44-1.79,12.63-3.6,17.57-7.25s8.78-4.89,11.79-10.47" transform="translate(-251.38 -167.03)"/></g></svg>