<svg id="Laag_1" data-name="Laag 1" xmlns="http://www.w3.org/2000/svg" viewBox="0 0 429.1 40.24"><defs><style>.cls-1{fill:#374256;}.cls-2{fill:#fff;}.cls-3{fill:#f1c3cd;}.cls-4{fill:#f3dbd5;}.cls-5{fill:#59503f;}.cls-6{fill:#dbede8;}.cls-7{fill:none;stroke:#374256;stroke-linecap:round;stroke-linejoin:round;stroke-width:3.41px;}</style></defs><title>naamlogostudio</title><path class="cls-1" d="M467.29,97.69a24.6,24.6,0,0,1,16,.12,18.65,18.65,0,0,1,6.46,4A17.71,17.71,0,0,1,494,108a22.89,22.89,0,0,1,0,16.44,18,18,0,0,1-4.24,6.27,18.65,18.65,0,0,1-6.46,4,24.59,24.59,0,0,1-16.32,0,5.4,5.4,0,0,1-.52-.21,17.86,17.86,0,0,1-10.18-10,23.1,23.1,0,0,1,0-16.44,18.11,18.11,0,0,1,4.24-6.27,18.79,18.79,0,0,1,6.46-4A3.1,3.1,0,0,1,467.29,97.69Zm19.56,18.57a14,14,0,0,0-.83-4.85,11.16,11.16,0,0,0-2.37-3.87,10.91,10.91,0,0,0-3.72-2.53,13.32,13.32,0,0,0-9.65,0,10.85,10.85,0,0,0-3.71,2.53,11.19,11.19,0,0,0-2.39,3.87,14.95,14.95,0,0,0,0,9.74,11.35,11.35,0,0,0,2.39,3.84,10.85,10.85,0,0,0,3.71,2.53,13.32,13.32,0,0,0,9.65,0,10.91,10.91,0,0,0,3.72-2.53,11.31,11.31,0,0,0,2.37-3.84A14,14,0,0,0,486.86,116.26Z" transform="translate(-66.4 -95.98)"/><path class="cls-2" d="M486,111.41a14.7,14.7,0,0,1,0,9.74,11.31,11.31,0,0,1-2.37,3.84,10.91,10.91,0,0,1-3.72,2.53,13.32,13.32,0,0,1-9.65,0,10.85,10.85,0,0,1-3.71-2.53,11.35,11.35,0,0,1-2.39-3.84,14.95,14.95,0,0,1,0-9.74,11.19,11.19,0,0,1,2.39-3.87,10.85,10.85,0,0,1,3.71-2.53,13.32,13.32,0,0,1,9.65,0,10.91,10.91,0,0,1,3.72,2.53A11.16,11.16,0,0,1,486,111.41Z" transform="translate(-66.4 -95.98)"/><path class="cls-2" d="M467.29,97.69a3.1,3.1,0,0,0-.34.12,18.79,18.79,0,0,0-6.46,4,18.11,18.11,0,0,0-4.24,6.27,21.44,21.44,0,0,0-1.51,8.21l-3.22,0a20,20,0,0,0-1.81-8.88,16.25,16.25,0,0,0-4.86-5.94,20.07,20.07,0,0,0-7.17-3.31q-.91-.22-1.87-.4Z" transform="translate(-66.4 -95.98)"/><path class="cls-2" d="M466.43,134.52h-30.5a20.44,20.44,0,0,0,2.31-.62,20.84,20.84,0,0,0,6.83-3.63,17.4,17.4,0,0,0,4.7-5.91,18,18,0,0,0,1.75-8.14l3.22,0a21.51,21.51,0,0,0,1.51,8.23,17.86,17.86,0,0,0,10.18,10Z" transform="translate(-66.4 -95.98)"/><path class="cls-3" d="M451.52,116.21a18,18,0,0,1-1.75,8.14,17.4,17.4,0,0,1-4.7,5.91,20.84,20.84,0,0,1-6.83,3.63,20.44,20.44,0,0,1-2.31.62H416.41V97.69h19.4q1,.18,1.87.4a20.07,20.07,0,0,1,7.17,3.31,16.25,16.25,0,0,1,4.86,5.94A20,20,0,0,1,451.52,116.21Zm-9-.74a10.53,10.53,0,0,0-1.05-4.89,9.62,9.62,0,0,0-2.85-3.44,12.48,12.48,0,0,0-4.18-2,18.91,18.91,0,0,0-5.05-.68h-5v22.72h4.37a23.36,23.36,0,0,0,5.44-.59,11.74,11.74,0,0,0,4.36-2,9.38,9.38,0,0,0,2.89-3.63A12.7,12.7,0,0,0,442.51,115.47Z" transform="translate(-66.4 -95.98)"/><path class="cls-2" d="M441.46,110.58a10.53,10.53,0,0,1,1.05,4.89,12.7,12.7,0,0,1-1.05,5.48,9.38,9.38,0,0,1-2.89,3.63,11.74,11.74,0,0,1-4.36,2,23.36,23.36,0,0,1-5.44.59H424.4V104.43h5a18.91,18.91,0,0,1,5.05.68,12.48,12.48,0,0,1,4.18,2A9.62,9.62,0,0,1,441.46,110.58Z" transform="translate(-66.4 -95.98)"/><path class="cls-3" d="M416.41,134.52h19.52a26.84,26.84,0,0,1-5.81.62H416.41Z" transform="translate(-66.4 -95.98)"/><path class="cls-3" d="M435.81,97.69h-19.4v-.62H429A36.34,36.34,0,0,1,435.81,97.69Z" transform="translate(-66.4 -95.98)"/><rect class="cls-2" x="342.65" y="1.7" width="7.37" height="36.83"/><rect class="cls-4" x="334.05" y="38.54" width="8.6" height="0.62"/><rect class="cls-4" x="334.05" y="1.7" width="8.6" height="36.83"/><rect class="cls-4" x="334.05" y="1.08" width="8.6" height="0.62"/><polygon class="cls-2" points="334.05 1.7 334.05 38.54 327.31 38.54 327.31 31.17 308.88 31.17 308.88 23.2 325.47 23.2 325.47 15.83 308.88 15.83 308.88 9.07 326.68 9.07 326.68 1.7 334.05 1.7"/><rect class="cls-5" x="300.91" y="38.54" width="26.4" height="0.62"/><polygon class="cls-5" points="327.31 31.17 327.31 38.54 300.91 38.54 300.91 1.7 326.68 1.7 326.68 9.07 308.88 9.07 308.88 15.83 325.47 15.83 325.47 23.2 308.88 23.2 308.88 31.17 327.31 31.17"/><rect class="cls-5" x="300.91" y="1.08" width="25.77" height="0.62"/><polygon class="cls-2" points="300.91 1.7 300.91 38.54 295.99 38.54 295.99 31.17 280.65 31.17 280.65 1.7 300.91 1.7"/><rect class="cls-6" x="272.05" y="38.54" width="23.94" height="0.62"/><polygon class="cls-6" points="295.99 31.17 295.99 38.54 272.05 38.54 272.05 1.7 280.65 1.7 280.65 31.17 295.99 31.17"/><rect class="cls-6" x="272.05" y="1.08" width="8.6" height="0.62"/><polygon class="cls-2" points="272.05 1.7 272.05 38.54 267.9 38.54 251.88 1.7 272.05 1.7"/><polygon class="cls-1" points="267.9 38.54 268.17 39.16 258.59 39.16 258.34 38.54 267.9 38.54"/><path class="cls-1" d="M318.27,97.69l16,36.83h-9.56l-3-7.37H307.11l-2.89,7.37h-9.34L310.8,97.69Zm.67,22.1L314.29,108l-4.58,11.74Z" transform="translate(-66.4 -95.98)"/><polygon class="cls-2" points="255.35 31.17 258.34 38.54 237.83 38.54 240.72 31.17 255.35 31.17"/><polygon class="cls-2" points="247.89 12.06 252.54 23.8 243.31 23.8 247.89 12.06"/><polygon class="cls-1" points="251.61 1.08 251.88 1.7 244.41 1.7 244.68 1.08 251.61 1.08"/><path class="cls-2" d="M310.8,97.69l-15.92,36.83H288a14.46,14.46,0,0,0,6.09-5l-6.94-5.17a9.1,9.1,0,0,1-3.26,3,9.4,9.4,0,0,1-4.54,1.07,9.79,9.79,0,0,1-4.19-.9,10.45,10.45,0,0,1-3.38-2.53,12.07,12.07,0,0,1-2.27-3.84,14.7,14.7,0,0,1,0-9.74,11.71,11.71,0,0,1,2.3-3.87,10.49,10.49,0,0,1,3.47-2.53,10.31,10.31,0,0,1,4.34-.9,10,10,0,0,1,4.14.8,8.17,8.17,0,0,1,3,2.28l6.4-5.22a12.53,12.53,0,0,0-2.77-2.62,14.11,14.11,0,0,0-3.13-1.66Z" transform="translate(-66.4 -95.98)"/><polygon class="cls-1" points="237.83 38.54 237.58 39.16 228.22 39.16 228.49 38.54 237.83 38.54"/><path class="cls-3" d="M287.19,124.38l6.94,5.17a14.46,14.46,0,0,1-6.09,5H271.78a18,18,0,0,1-10.18-10,23.1,23.1,0,0,1,0-16.44,17.94,17.94,0,0,1,4.25-6.27,18.59,18.59,0,0,1,6.45-4,3.1,3.1,0,0,1,.34-.12h14.67a14.11,14.11,0,0,1,3.13,1.66,12.53,12.53,0,0,1,2.77,2.62l-6.4,5.22a8.17,8.17,0,0,0-3-2.28,10,10,0,0,0-4.14-.8,10.31,10.31,0,0,0-4.34.9,10.49,10.49,0,0,0-3.47,2.53,11.71,11.71,0,0,0-2.3,3.87,14.7,14.7,0,0,0,0,9.74,12.07,12.07,0,0,0,2.27,3.84,10.45,10.45,0,0,0,3.38,2.53,9.79,9.79,0,0,0,4.19.9,9.4,9.4,0,0,0,4.54-1.07A9.1,9.1,0,0,0,287.19,124.38Z" transform="translate(-66.4 -95.98)"/><path class="cls-3" d="M271.78,134.52H288a18.79,18.79,0,0,1-7.57,1.6,23.44,23.44,0,0,1-8.17-1.39A5.4,5.4,0,0,1,271.78,134.52Z" transform="translate(-66.4 -95.98)"/><path class="cls-3" d="M287.31,97.69H272.64a23.05,23.05,0,0,1,7.83-1.27,20.32,20.32,0,0,1,3.33.3,17.36,17.36,0,0,1,3.41.93Z" transform="translate(-66.4 -95.98)"/><path class="cls-2" d="M272.64,97.69a3.1,3.1,0,0,0-.34.12,18.59,18.59,0,0,0-6.45,4A17.94,17.94,0,0,0,261.6,108a23.1,23.1,0,0,0,0,16.44,18,18,0,0,0,10.18,10H244.26a17.77,17.77,0,0,0,5.85-4,18.84,18.84,0,0,0,4-6.28,21.87,21.87,0,0,0,1.44-8,21.58,21.58,0,0,0-1.44-7.94,19.08,19.08,0,0,0-4-6.27,18.2,18.2,0,0,0-6.17-4.14l-.58-.22Z" transform="translate(-66.4 -95.98)"/><path class="cls-1" d="M243.37,97.69l.58.22a18.2,18.2,0,0,1,6.17,4.14,19.08,19.08,0,0,1,4,6.27,21.58,21.58,0,0,1,1.44,7.94,21.87,21.87,0,0,1-1.44,8,18.84,18.84,0,0,1-4,6.28,17.77,17.77,0,0,1-5.85,4l-.31.13a22.12,22.12,0,0,1-15.84,0,17.81,17.81,0,0,1-6.17-4.12,18.84,18.84,0,0,1-4-6.28,21.57,21.57,0,0,1-1.44-8,21.28,21.28,0,0,1,1.44-7.94,19.08,19.08,0,0,1,4-6.27,18.06,18.06,0,0,1,6.17-4.14,21.75,21.75,0,0,1,15.27-.22ZM252,116.26a18.88,18.88,0,0,0-1.11-6.55,15.91,15.91,0,0,0-3.2-5.29,14.61,14.61,0,0,0-5.05-3.51,17.74,17.74,0,0,0-13.28,0,14.55,14.55,0,0,0-5,3.51,15.44,15.44,0,0,0-3.2,5.29,19.66,19.66,0,0,0,0,13.12,15.44,15.44,0,0,0,3.2,5.29,14.75,14.75,0,0,0,5,3.51,17.74,17.74,0,0,0,13.28,0,14.81,14.81,0,0,0,5.05-3.51,15.91,15.91,0,0,0,3.2-5.29A19,19,0,0,0,252,116.26Z" transform="translate(-66.4 -95.98)"/><rect class="cls-1" x="138.83" y="1.08" width="3.68" height="38.08"/><path class="cls-1" d="M197.52,113.71c.1,1.13.16,1.93.16,2.39s-.06,1.27-.16,2.4a21.27,21.27,0,0,1-.77,3.79,20.88,20.88,0,0,1-1.94,4.37,15,15,0,0,1-3.6,4.16,18.88,18.88,0,0,1-5.72,3.1,25.66,25.66,0,0,1-8.39,1.22H165.32V97.06H177.1a25.66,25.66,0,0,1,8.39,1.22,18.56,18.56,0,0,1,5.72,3.1,15,15,0,0,1,3.6,4.16,20.55,20.55,0,0,1,1.94,4.37A21.27,21.27,0,0,1,197.52,113.71Zm-4.11,2.09a16.48,16.48,0,0,0-1.38-7,13.58,13.58,0,0,0-3.78-4.86,15.87,15.87,0,0,0-5.65-2.86,25.72,25.72,0,0,0-7-.92h-7.25v31.3h7.25a25.15,25.15,0,0,0,7-.93,16.09,16.09,0,0,0,5.65-2.85,13.64,13.64,0,0,0,3.78-4.88A16.41,16.41,0,0,0,193.42,115.8Z" transform="translate(-66.4 -95.98)"/><path class="cls-1" d="M156.11,97.06v23.33a24.08,24.08,0,0,1-.7,5.81,13.3,13.3,0,0,1-2.33,4.91,11.86,11.86,0,0,1-4.28,3.42,17.24,17.24,0,0,1-13,0,11.86,11.86,0,0,1-4.28-3.42,13.3,13.3,0,0,1-2.33-4.91,24.08,24.08,0,0,1-.7-5.81V97.06h3.69v22.41a26.54,26.54,0,0,0,.37,4.33,13.21,13.21,0,0,0,1.44,4.27,9.09,9.09,0,0,0,3.07,3.26,11.44,11.44,0,0,0,10.49,0,9.09,9.09,0,0,0,3.07-3.26,13.6,13.6,0,0,0,1.45-4.27,28.3,28.3,0,0,0,.37-4.33V97.06Z" transform="translate(-66.4 -95.98)"/><polygon class="cls-1" points="57.18 1.08 57.18 4.17 44.29 4.17 44.29 38.54 40.6 38.54 40.6 4.17 27.72 4.17 27.72 1.08 57.18 1.08"/><path class="cls-1" d="M89.81,101.17l-3,2.18a9,9,0,0,0-3.11-2.8,9.1,9.1,0,0,0-4.25-.93,11.16,11.16,0,0,0-3.25.46,7.93,7.93,0,0,0-2.7,1.33,6.36,6.36,0,0,0-1.84,2.21,6.79,6.79,0,0,0-.7,3.16,6,6,0,0,0,1.44,4.34,10.37,10.37,0,0,0,3.6,2.4,37.16,37.16,0,0,0,4.7,1.54,23,23,0,0,1,4.7,1.79A10.14,10.14,0,0,1,89,120a9.26,9.26,0,0,1,1.44,5.51,10.3,10.3,0,0,1-1,4.54,9.89,9.89,0,0,1-2.58,3.33,11.33,11.33,0,0,1-3.76,2.06,14.36,14.36,0,0,1-4.43.7,17.66,17.66,0,0,1-6.88-1.32,12.43,12.43,0,0,1-5.4-4.4l3.36-2.24a8.88,8.88,0,0,0,3.6,3.57,10.54,10.54,0,0,0,5,1.19,10,10,0,0,0,3.31-.53,8.51,8.51,0,0,0,2.7-1.5,7,7,0,0,0,1.81-2.33,6.86,6.86,0,0,0,.67-3.07,5.86,5.86,0,0,0-.82-3.25,6.77,6.77,0,0,0-2.22-2.12,15.82,15.82,0,0,0-3.11-1.41c-1.16-.39-2.36-.79-3.59-1.17s-2.42-.84-3.57-1.33a12,12,0,0,1-3.11-2,8.48,8.48,0,0,1-2.22-3,10.82,10.82,0,0,1-.83-4.48,9.83,9.83,0,0,1,1-4.46,9.38,9.38,0,0,1,2.67-3.26,12.23,12.23,0,0,1,3.87-2,15.66,15.66,0,0,1,4.59-.67,14.92,14.92,0,0,1,5.74,1.1A10.81,10.81,0,0,1,89.81,101.17Z" transform="translate(-66.4 -95.98)"/><polyline class="cls-7" points="169.53 1.7 176.97 1.7 206.24 1.7 220.92 1.7 244.41 1.7 251.88 1.7 272.05 1.7 280.65 1.7 300.91 1.7 326.68 1.7 334.05 1.7 342.65 1.7 350.01 1.7 369.41 1.7 400.89 1.7 408.33 1.7"/><polyline class="cls-7" points="170.76 38.54 177.86 38.54 205.38 38.54 221.64 38.54 228.49 38.54 237.83 38.54 258.34 38.54 267.9 38.54 272.05 38.54 295.99 38.54 300.91 38.54 327.31 38.54 334.05 38.54 342.65 38.54 350.01 38.54 369.53 38.54 400.04 38.54 409.57 38.54"/></svg>