<svg id="Laag_1" data-name="Laag 1" xmlns="http://www.w3.org/2000/svg" viewBox="0 0 1000 600"><defs><style>.cls-1{opacity:0.1;}.cls-2{fill:#dceee9;}.cls-3{fill:#59503f;}.cls-4{fill:#f4dcd6;}.cls-5{fill:#f1c4ce;}.cls-6{fill:#374256;}</style></defs><title>patrooncaleido</title><g class="cls-1"><polygon class="cls-2" points="1000 550 1000 600 950 550 1000 550"/><polygon class="cls-3" points="1000 500 1000 550 950 500 1000 500"/><polygon class="cls-4" points="1000 450 1000 500 950 450 1000 450"/><polygon class="cls-5" points="1000 400 1000 450 950 400 1000 400"/><polygon class="cls-6" points="1000 350 1000 400 950 350 1000 350"/><polygon class="cls-4" points="1000 300 1000 350 950 300 1000 300"/><polygon class="cls-4" points="1000 250 1000 300 950 250 1000 250"/><polygon class="cls-2" points="1000 200 1000 250 950 200 1000 200"/><polygon class="cls-4" points="1000 150 1000 200 950 150 1000 150"/><polygon class="cls-3" points="1000 100 1000 150 950 100 1000 100"/><polygon class="cls-3" points="1000 50 1000 100 950 50 1000 50"/><polygon class="cls-6" points="1000 0 1000 50 950 0 1000 0"/><polygon class="cls-2" points="1000 50 950 50 950 0 1000 50"/><polygon class="cls-5" points="1000 100 950 100 950 50 1000 100"/><polygon class="cls-5" points="1000 150 950 150 950 100 1000 150"/><polygon class="cls-6" points="1000 200 950 200 950 150 1000 200"/><polygon class="cls-4" points="1000 250 950 250 950 200 1000 250"/><polygon class="cls-3" points="1000 300 950 300 950 250 1000 300"/><polygon class="cls-5" points="1000 350 950 350 950 300 1000 350"/><polygon class="cls-2" points="1000 400 950 400 950 350 1000 400"/><polygon class="cls-4" points="1000 450 950 450 950 400 1000 450"/><polygon class="cls-6" points="1000 500 950 500 950 450 1000 500"/><polygon class="cls-6" points="1000 550 950 550 950 500 1000 550"/><polygon class="cls-6" points="1000 600 950 600 950 550 1000 600"/><polygon class="cls-6" points="950 550 950 600 900 550 950 550"/><polygon class="cls-2" points="950 500 950 550 900 500 950 500"/><polygon class="cls-6" points="950 450 950 500 900 450 950 450"/><polygon class="cls-3" points="950 400 950 450 900 400 950 400"/><polygon class="cls-4" points="950 350 950 400 900 350 950 350"/><polygon class="cls-3" points="950 300 950 350 900 300 950 300"/><polygon class="cls-4" points="950 250 950 300 900 250 950 250"/><polygon class="cls-5" points="950 200 950 250 900 200 950 200"/><polygon class="cls-4" points="950 150 950 200 900 150 950 150"/><polygon class="cls-4" points="950 100 950 150 900 100 950 100"/><polygon class="cls-2" points="950 50 950 100 900 50 950 50"/><polygon class="cls-4" points="950 0 950 50 900 0 950 0"/><polygon class="cls-6" points="950 50 900 50 900 0 950 50"/><polygon class="cls-4" points="950 100 900 100 900 50 950 100"/><polygon class="cls-5" points="950 150 900 150 900 100 950 150"/><polygon class="cls-3" points="950 200 900 200 900 150 950 200"/><polygon class="cls-6" points="950 250 900 250 900 200 950 250"/><polygon class="cls-2" points="950 300 900 300 900 250 950 300"/><polygon class="cls-5" points="950 350 900 350 900 300 950 350"/><polygon class="cls-5" points="950 400 900 400 900 350 950 400"/><polygon class="cls-4" points="950 450 900 450 900 400 950 450"/><polygon class="cls-4" points="950 500 900 500 900 450 950 500"/><polygon class="cls-5" points="950 550 900 550 900 500 950 550"/><polygon class="cls-5" points="950 600 900 600 900 550 950 600"/><polygon class="cls-3" points="900 550 900 600 850 550 900 550"/><polygon class="cls-6" points="900 500 900 550 850 500 900 500"/><polygon class="cls-4" points="900 450 900 500 850 450 900 450"/><polygon class="cls-3" points="900 400 900 450 850 400 900 400"/><polygon class="cls-6" points="900 350 900 400 850 350 900 350"/><polygon class="cls-2" points="900 300 900 350 850 300 900 300"/><polygon class="cls-4" points="900 250 900 300 850 250 900 250"/><polygon class="cls-2" points="900 200 900 250 850 200 900 200"/><polygon class="cls-5" points="900 150 900 200 850 150 900 150"/><polygon class="cls-2" points="900 100 900 150 850 100 900 100"/><polygon class="cls-3" points="900 50 900 100 850 50 900 50"/><polygon class="cls-4" points="900 0 900 50 850 0 900 0"/><polygon class="cls-5" points="900 50 850 50 850 0 900 50"/><polygon class="cls-5" points="900 100 850 100 850 50 900 100"/><polygon class="cls-3" points="900 150 850 150 850 100 900 150"/><polygon class="cls-4" points="900 200 850 200 850 150 900 200"/><polygon class="cls-6" points="900 250 850 250 850 200 900 250"/><polygon class="cls-3" points="900 300 850 300 850 250 900 300"/><polygon class="cls-3" points="900 350 850 350 850 300 900 350"/><polygon class="cls-2" points="900 400 850 400 850 350 900 400"/><polygon class="cls-2" points="900 450 850 450 850 400 900 450"/><polygon class="cls-5" points="900 500 850 500 850 450 900 500"/><polygon class="cls-4" points="900 550 850 550 850 500 900 550"/><polygon class="cls-6" points="900 600 850 600 850 550 900 600"/><polygon class="cls-4" points="850 550 850 600 800 550 850 550"/><polygon class="cls-4" points="850 500 850 550 800 500 850 500"/><polygon class="cls-6" points="850 450 850 500 800 450 850 450"/><polygon class="cls-4" points="850 400 850 450 800 400 850 400"/><polygon class="cls-3" points="850 350 850 400 800 350 850 350"/><polygon class="cls-6" points="850 300 850 350 800 300 850 300"/><polygon class="cls-6" points="850 250 850 300 800 250 850 250"/><polygon class="cls-2" points="850 200 850 250 800 200 850 200"/><polygon class="cls-3" points="850 150 850 200 800 150 850 150"/><polygon class="cls-5" points="850 100 850 150 800 100 850 100"/><polygon class="cls-2" points="850 50 850 100 800 50 850 50"/><polygon class="cls-3" points="850 0 850 50 800 0 850 0"/><polygon class="cls-2" points="850 50 800 50 800 0 850 50"/><polygon class="cls-6" points="850 100 800 100 800 50 850 100"/><polygon class="cls-6" points="850 150 800 150 800 100 850 150"/><polygon class="cls-4" points="850 200 800 200 800 150 850 200"/><polygon class="cls-3" points="850 250 800 250 800 200 850 250"/><polygon class="cls-2" points="850 300 800 300 800 250 850 300"/><polygon class="cls-5" points="850 350 800 350 800 300 850 350"/><polygon class="cls-6" points="850 400 800 400 800 350 850 400"/><polygon class="cls-4" points="850 450 800 450 800 400 850 450"/><polygon class="cls-3" points="850 500 800 500 800 450 850 500"/><polygon class="cls-2" points="850 550 800 550 800 500 850 550"/><polygon class="cls-6" points="850 600 800 600 800 550 850 600"/><polygon class="cls-5" points="800 550 800 600 750 550 800 550"/><polygon class="cls-5" points="800 500 800 550 750 500 800 500"/><polygon class="cls-6" points="800 450 800 500 750 450 800 450"/><polygon class="cls-2" points="800 400 800 450 750 400 800 400"/><polygon class="cls-4" points="800 350 800 400 750 350 800 350"/><polygon class="cls-6" points="800 300 800 350 750 300 800 300"/><polygon class="cls-4" points="800 250 800 300 750 250 800 250"/><polygon class="cls-3" points="800 200 800 250 750 200 800 200"/><polygon class="cls-6" points="800 150 800 200 750 150 800 150"/><polygon class="cls-5" points="800 100 800 150 750 100 800 100"/><polygon class="cls-3" points="800 50 800 100 750 50 800 50"/><polygon class="cls-6" points="800 0 800 50 750 0 800 0"/><polygon class="cls-5" points="800 50 750 50 750 0 800 50"/><polygon class="cls-4" points="800 100 750 100 750 50 800 100"/><polygon class="cls-3" points="800 150 750 150 750 100 800 150"/><polygon class="cls-5" points="800 200 750 200 750 150 800 200"/><polygon class="cls-6" points="800 250 750 250 750 200 800 250"/><polygon class="cls-2" points="800 300 750 300 750 250 800 300"/><polygon class="cls-4" points="800 350 750 350 750 300 800 350"/><polygon class="cls-4" points="800 400 750 400 750 350 800 400"/><polygon class="cls-6" points="800 450 750 450 750 400 800 450"/><polygon class="cls-3" points="800 500 750 500 750 450 800 500"/><polygon class="cls-4" points="800 550 750 550 750 500 800 550"/><polygon class="cls-6" points="800 600 750 600 750 550 800 600"/><polygon class="cls-3" points="750 550 750 600 700 550 750 550"/><polygon class="cls-3" points="750 500 750 550 700 500 750 500"/><polygon class="cls-5" points="750 450 750 500 700 450 750 450"/><polygon class="cls-5" points="750 400 750 450 700 400 750 400"/><polygon class="cls-6" points="750 350 750 400 700 350 750 350"/><polygon class="cls-3" points="750 300 750 350 700 300 750 300"/><polygon class="cls-4" points="750 250 750 300 700 250 750 250"/><polygon class="cls-5" points="750 200 750 250 700 200 750 200"/><polygon class="cls-4" points="750 150 750 200 700 150 750 150"/><polygon class="cls-5" points="750 100 750 150 700 100 750 100"/><polygon class="cls-5" points="750 50 750 100 700 50 750 50"/><polygon class="cls-4" points="750 0 750 50 700 0 750 0"/><polygon class="cls-3" points="750 50 700 50 700 0 750 50"/><polygon class="cls-6" points="750 150 700 150 700 100 750 150"/><polygon class="cls-6" points="750 200 700 200 700 150 750 200"/><polygon class="cls-3" points="750 250 700 250 700 200 750 250"/><polygon class="cls-3" points="750 300 700 300 700 250 750 300"/><polygon class="cls-5" points="750 350 700 350 700 300 750 350"/><polygon class="cls-3" points="750 400 700 400 700 350 750 400"/><polygon class="cls-6" points="750 450 700 450 700 400 750 450"/><polygon class="cls-4" points="750 500 700 500 700 450 750 500"/><polygon class="cls-6" points="750 550 700 550 700 500 750 550"/><polygon class="cls-5" points="750 600 700 600 700 550 750 600"/><polygon class="cls-4" points="700 550 700 600 650 550 700 550"/><polygon class="cls-2" points="700 500 700 550 650 500 700 500"/><polygon class="cls-6" points="700 450 700 500 650 450 700 450"/><polygon class="cls-4" points="700 400 700 450 650 400 700 400"/><polygon class="cls-4" points="700 350 700 400 650 350 700 350"/><polygon class="cls-3" points="700 300 700 350 650 300 700 300"/><polygon class="cls-6" points="700 250 700 300 650 250 700 250"/><polygon class="cls-2" points="700 200 700 250 650 200 700 200"/><polygon class="cls-6" points="700 150 700 200 650 150 700 150"/><polygon class="cls-6" points="700 100 700 150 650 100 700 100"/><polygon class="cls-2" points="700 50 700 100 650 50 700 50"/><polygon class="cls-4" points="700 0 700 50 650 0 700 0"/><polygon class="cls-6" points="700 50 650 50 650 0 700 50"/><polygon class="cls-3" points="700 100 650 100 650 50 700 100"/><polygon class="cls-2" points="700 150 650 150 650 100 700 150"/><polygon class="cls-3" points="700 200 650 200 650 150 700 200"/><polygon class="cls-5" points="700 250 650 250 650 200 700 250"/><polygon class="cls-2" points="700 300 650 300 650 250 700 300"/><polygon class="cls-5" points="700 350 650 350 650 300 700 350"/><polygon class="cls-2" points="700 400 650 400 650 350 700 400"/><polygon class="cls-3" points="700 450 650 450 650 400 700 450"/><polygon class="cls-5" points="700 500 650 500 650 450 700 500"/><polygon class="cls-4" points="700 550 650 550 650 500 700 550"/><polygon class="cls-6" points="700 600 652.08 600 650 597.92 650 550 700 600"/><polygon class="cls-5" points="650 550 650 597.92 602.08 550 650 550"/><polygon class="cls-3" points="650 500 650 550 600 500 650 500"/><polygon class="cls-4" points="650 450 650 500 600 450 650 450"/><polygon class="cls-6" points="650 400 650 450 600 400 650 400"/><polygon class="cls-3" points="650 350 650 400 600 350 650 350"/><polygon class="cls-6" points="650 300 650 350 600 300 650 300"/><polygon class="cls-4" points="650 250 650 300 600 250 650 250"/><polygon class="cls-2" points="650 200 650 250 600 200 650 200"/><polygon class="cls-5" points="650 150 650 200 600 150 650 150"/><polygon class="cls-5" points="650 100 650 150 600 100 650 100"/><polygon class="cls-6" points="650 50 650 100 600 50 650 50"/><polygon class="cls-5" points="650 0 650 50 600 0 650 0"/><polygon class="cls-2" points="650 50 600 50 600 0 650 50"/><polygon class="cls-2" points="650 100 600 100 600 50 650 100"/><polygon class="cls-6" points="650 150 600 150 600 100 650 150"/><polygon class="cls-4" points="650 200 600 200 600 150 650 200"/><polygon class="cls-3" points="650 250 600 250 600 200 650 250"/><polygon class="cls-5" points="650 300 600 300 600 250 650 300"/><polygon class="cls-2" points="650 350 600 350 600 300 650 350"/><polygon class="cls-4" points="650 400 600 400 600 350 650 400"/><polygon class="cls-6" points="650 450 600 450 600 400 650 450"/><polygon class="cls-6" points="650 500 600 500 600 450 650 500"/><polygon class="cls-4" points="650 550 602.08 550 600 547.92 600 500 650 550"/><polygon class="cls-5" points="650 600 600 600 600 550 602.08 550 650 597.92 650 600"/><polygon class="cls-6" points="600 550 600 600 550 550 600 550"/><polygon class="cls-3" points="600 500 600 547.92 552.08 500 600 500"/><polygon class="cls-5" points="600 450 600 500 550 450 600 450"/><polygon class="cls-4" points="600 400 600 450 550 400 600 400"/><polygon class="cls-5" points="600 350 600 400 550 350 600 350"/><polygon class="cls-3" points="600 300 600 350 550 300 600 300"/><polygon class="cls-6" points="600 250 600 300 550 250 600 250"/><polygon class="cls-2" points="600 200 600 250 550 200 600 200"/><polygon class="cls-5" points="600 150 600 200 550 150 600 150"/><polygon class="cls-6" points="600 100 600 150 550 100 600 100"/><polygon class="cls-3" points="600 50 600 100 550 50 600 50"/><polygon class="cls-5" points="600 0 600 50 550 0 600 0"/><polygon class="cls-6" points="600 50 550 50 550 0 600 50"/><polygon class="cls-3" points="600 100 550 100 550 50 600 100"/><polygon class="cls-4" points="600 150 550 150 550 100 600 150"/><polygon class="cls-6" points="600 200 550 200 550 150 600 200"/><polygon class="cls-5" points="600 250 550 250 550 200 600 250"/><polygon class="cls-2" points="600 300 550 300 550 250 600 300"/><polygon class="cls-3" points="600 350 550 350 550 300 600 350"/><polygon class="cls-6" points="600 400 550 400 550 350 600 400"/><polygon class="cls-3" points="600 450 550 450 550 400 600 450"/><polygon class="cls-2" points="600 500 552.08 500 550 497.92 550 450 600 500"/><polygon class="cls-2" points="600 600 550 600 550 550 600 600"/><polygon class="cls-3" points="552.08 500 600 547.92 600 550 550 550 550 500 552.08 500"/><polygon class="cls-4" points="550 550 550 600 549.8 600 500 550.2 500 550 550 550"/><polygon class="cls-2" points="550 500 550 550 500 500 550 500"/><polygon class="cls-4" points="550 450 550 497.92 502.08 450 550 450"/><polygon class="cls-2" points="550 400 550 450 500 400 550 400"/><polygon class="cls-2" points="550 350 550 400 500 350 550 350"/><polygon class="cls-5" points="550 300 550 350 500 300 550 300"/><polygon class="cls-3" points="550 250 550 300 500 250 550 250"/><polygon class="cls-4" points="550 200 550 250 500 200 550 200"/><polygon class="cls-5" points="550 150 550 200 500 150 550 150"/><polygon class="cls-2" points="550 100 550 150 500 100 550 100"/><polygon class="cls-4" points="550 50 550 100 500 50 550 50"/><polygon class="cls-2" points="550 0 550 50 500 0 550 0"/><polygon class="cls-3" points="550 50 500 50 500 0 550 50"/><polygon class="cls-6" points="550 100 500 100 500 50 550 100"/><polygon class="cls-4" points="550 150 500 150 500 100 550 150"/><polygon class="cls-3" points="550 200 500 200 500 150 550 200"/><polygon class="cls-2" points="550 250 500 250 500 200 550 250"/><polygon class="cls-4" points="550 300 500 300 500 250 550 300"/><polygon class="cls-6" points="550 350 500 350 500 300 550 350"/><polygon class="cls-3" points="550 400 500 400 500 350 550 400"/><polygon class="cls-6" points="550 450 502.08 450 500 447.92 500 400 550 450"/><polygon class="cls-5" points="550 550 500 550 500 500 550 550"/><polygon class="cls-6" points="549.8 600 500 600 500 550.2 549.8 600"/><polygon class="cls-6" points="500 450 502.08 450 550 497.92 550 500 500 500 500 450"/><polygon class="cls-4" points="500 550.2 500 600 450 550 499.8 550 500 550.2"/><polygon class="cls-2" points="500 500 500 550 499.8 550 450 500.2 450 500 500 500"/><polygon class="cls-4" points="500 450 500 500 450 450 500 450"/><polygon class="cls-5" points="500 400 500 447.92 452.08 400 500 400"/><polygon class="cls-4" points="500 350 500 400 450 350 500 350"/><polygon class="cls-2" points="500 300 500 350 450 300 500 300"/><polygon class="cls-6" points="500 250 500 300 450 250 500 250"/><polygon class="cls-6" points="500 200 500 250 450 200 500 200"/><polygon class="cls-2" points="500 150 500 200 450 150 500 150"/><polygon class="cls-4" points="500 100 500 150 450 100 500 100"/><polygon class="cls-3" points="500 50 500 100 450 50 500 50"/><polygon class="cls-6" points="500 0 500 50 450 0 500 0"/><polygon class="cls-3" points="500 50 450 50 450 0 500 50"/><polygon class="cls-2" points="500 100 450 100 450 50 500 100"/><polygon class="cls-3" points="500 150 450 150 450 100 500 150"/><polygon class="cls-6" points="500 200 450 200 450 150 500 200"/><polygon class="cls-5" points="500 250 450 250 450 200 500 250"/><polygon class="cls-3" points="500 300 450 300 450 250 500 300"/><polygon class="cls-5" points="500 350 450 350 450 300 500 350"/><polygon class="cls-6" points="500 400 452.08 400 450 397.92 450 350 500 400"/><polygon class="cls-5" points="500 500 450 500 450 450 500 500"/><polygon class="cls-3" points="500 600 450 600 450 550 500 600"/><polygon class="cls-3" points="499.8 550 450 550 450 500.2 499.8 550"/><polygon class="cls-3" points="500 447.92 500 450 450 450 450 400 452.08 400 500 447.92"/><polygon class="cls-6" points="450 550 450 600 400 550 450 550"/><polygon class="cls-3" points="450 500.2 450 550 400 500 449.8 500 450 500.2"/><polygon class="cls-3" points="450 450 450 500 449.8 500 400 450.2 400 450 450 450"/><polygon class="cls-2" points="450 400 450 450 400 400 450 400"/><polygon class="cls-2" points="450 350 450 397.92 402.08 350 450 350"/><polygon class="cls-6" points="450 300 450 350 400 300 450 300"/><polygon class="cls-4" points="450 250 450 300 400 250 450 250"/><polygon class="cls-6" points="450 200 450 250 400 200 450 200"/><polygon class="cls-5" points="450 150 450 200 400 150 450 150"/><polygon class="cls-4" points="450 100 450 150 400 100 450 100"/><polygon class="cls-3" points="450 50 450 100 400 50 450 50"/><polygon class="cls-4" points="450 50 400 50 400 0 450 50"/><polygon class="cls-5" points="450 100 400 100 400 50 450 100"/><polygon class="cls-6" points="450 150 400 150 400 100 450 150"/><polygon class="cls-2" points="450 200 400 200 400 150 450 200"/><polygon class="cls-2" points="450 250 400 250 400 200 450 250"/><polygon class="cls-2" points="450 300 400 300 400 250 450 300"/><polygon class="cls-4" points="450 350 402.08 350 400 347.92 400 300 450 350"/><polygon class="cls-4" points="450 450 400 450 400 400 450 450"/><polygon class="cls-5" points="450 550 400 550 400 500 450 550"/><polygon class="cls-5" points="450 600 400 600 400 550 450 600"/><polygon class="cls-6" points="449.8 500 400 500 400 450.2 449.8 500"/><polygon class="cls-6" points="402.08 350 450 397.92 450 400 400 400 400 350 402.08 350"/><polygon class="cls-2" points="400 550 400 600 350 550 400 550"/><polygon class="cls-4" points="400 500 400 550 350 500 400 500"/><polygon class="cls-5" points="400 450.2 400 500 350 450 399.8 450 400 450.2"/><polygon class="cls-3" points="400 400 400 450 399.8 450 350 400.2 350 400 400 400"/><polygon class="cls-3" points="400 350 400 400 350 350 400 350"/><polygon class="cls-6" points="400 300 400 347.92 352.08 300 400 300"/><polygon class="cls-3" points="400 250 400 300 350 250 400 250"/><polygon class="cls-5" points="400 200 400 250 350 200 400 200"/><polygon class="cls-2" points="400 150 400 200 350 150 400 150"/><polygon class="cls-2" points="400 100 400 150 350 100 400 100"/><polygon class="cls-5" points="400 0 400 50 350 0 400 0"/><polygon class="cls-2" points="400 50 350 50 350 0 400 50"/><polygon class="cls-3" points="400 100 350 100 350 50 400 100"/><polygon class="cls-4" points="400 150 350 150 350 100 400 150"/><polygon class="cls-3" points="400 200 350 200 350 150 400 200"/><polygon class="cls-4" points="400 250 350 250 350 200 400 250"/><polygon class="cls-4" points="400 300 352.08 300 350 297.92 350 250 400 300"/><polygon class="cls-5" points="400 400 350 400 350 350 400 400"/><polygon class="cls-3" points="400 500 350 500 350 450 400 500"/><polygon class="cls-6" points="400 550 350 550 350 500 400 550"/><polygon class="cls-2" points="400 600 350 600 350 550 400 600"/><polygon class="cls-4" points="399.8 450 350 450 350 400.2 399.8 450"/><polygon class="cls-2" points="350 300 352.08 300 400 347.92 400 350 350 350 350 300"/><polygon class="cls-6" points="350 550 350 600 300 550 350 550"/><polygon class="cls-3" points="350 500 350 550 300 500 350 500"/><polygon class="cls-2" points="350 450 350 500 300 450 350 450"/><polygon class="cls-3" points="350 400.2 350 450 300 400 349.8 400 350 400.2"/><polygon class="cls-2" points="350 350 350 400 349.8 400 300 350.2 300 350 350 350"/><polygon class="cls-5" points="350 300 350 350 300 300 350 300"/><polygon class="cls-6" points="350 250 350 297.92 302.08 250 350 250"/><polygon class="cls-6" points="350 200 350 250 300 200 350 200"/><polygon class="cls-5" points="350 150 350 200 300 150 350 150"/><polygon class="cls-6" points="350 100 350 150 300 100 350 100"/><polygon class="cls-5" points="350 50 350 100 300 50 350 50"/><polygon class="cls-6" points="350 0 350 50 300 0 350 0"/><polygon class="cls-2" points="350 50 300 50 300 0 350 50"/><polygon class="cls-2" points="350 100 300 100 300 50 350 100"/><polygon class="cls-4" points="350 150 300 150 300 100 350 150"/><polygon class="cls-4" points="350 250 302.08 250 300 247.92 300 200 350 250"/><polygon class="cls-6" points="350 350 300 350 300 300 350 350"/><polygon class="cls-6" points="350 450 300 450 300 400 350 450"/><polygon class="cls-2" points="350 500 300 500 300 450 350 500"/><polygon class="cls-3" points="350 550 300 550 300 500 350 550"/><polygon class="cls-5" points="350 600 300 600 300 550 350 600"/><polygon class="cls-3" points="349.8 400 300 400 300 350.2 349.8 400"/><polygon class="cls-3" points="350 297.92 350 300 300 300 300 250 302.08 250 350 297.92"/><polygon class="cls-2" points="300 550 300 600 250 550 300 550"/><polygon class="cls-4" points="300 500 300 550 250 500 300 500"/><polygon class="cls-6" points="300 450 300 500 250 450 300 450"/><polygon class="cls-3" points="300 400 300 450 250 400 300 400"/><polygon class="cls-2" points="300 350.2 300 400 250 350 299.8 350 300 350.2"/><polygon class="cls-3" points="300 300 300 350 299.8 350 250 300.2 250 300 300 300"/><polygon class="cls-5" points="300 250 300 300 250 250 300 250"/><polygon class="cls-3" points="300 200 300 247.92 252.08 200 300 200"/><polygon class="cls-6" points="300 150 300 200 250 150 300 150"/><polygon class="cls-2" points="300 100 300 150 250 100 300 100"/><polygon class="cls-6" points="300 50 300 100 250 50 300 50"/><polygon class="cls-5" points="300 0 300 50 250 0 300 0"/><polygon class="cls-3" points="300 50 250 50 250 0 300 50"/><polygon class="cls-4" points="300 100 250 100 250 50 300 100"/><polygon class="cls-6" points="300 150 250 150 250 100 300 150"/><polygon class="cls-3" points="300 200 252.08 200 250 197.92 250 150 300 200"/><polygon class="cls-2" points="300 300 250 300 250 250 300 300"/><polygon class="cls-5" points="300 400 250 400 250 350 300 400"/><polygon class="cls-4" points="300 450 250 450 250 400 300 450"/><polygon class="cls-5" points="300 500 250 500 250 450 300 500"/><polygon class="cls-3" points="300 550 250 550 250 500 300 550"/><polygon class="cls-5" points="300 600 250 600 250 550 300 600"/><polygon class="cls-4" points="299.8 350 250 350 250 300.2 299.8 350"/><polygon class="cls-2" points="300 250 250 250 250 200 252.08 200 300 247.92 300 250"/><polygon class="cls-6" points="250 550 250 600 200 550 250 550"/><polygon class="cls-3" points="250 500 250 550 200 500 250 500"/><polygon class="cls-6" points="250 450 250 500 200 450 250 450"/><polygon class="cls-5" points="250 400 250 450 200 400 250 400"/><polygon class="cls-5" points="250 350 250 400 200 350 250 350"/><polygon class="cls-3" points="250 300.2 250 350 200 300 249.8 300 250 300.2"/><polygon class="cls-4" points="250 250 250 300 249.8 300 200 250.2 200 250 250 250"/><polygon class="cls-3" points="250 200 250 250 200 200 250 200"/><polygon class="cls-6" points="250 150 250 197.92 202.08 150 250 150"/><polygon class="cls-2" points="250 100 250 150 200 100 250 100"/><polygon class="cls-5" points="250 50 250 100 200 50 250 50"/><polygon class="cls-2" points="250 0 250 50 200 0 250 0"/><polygon class="cls-4" points="250 50 200 50 200 0 250 50"/><polygon class="cls-6" points="250 100 200 100 200 50 250 100"/><polygon class="cls-3" points="250 150 202.08 150 200 147.92 200 100 250 150"/><polygon class="cls-5" points="250 250 200 250 200 200 250 250"/><polygon class="cls-2" points="250 350 200 350 200 300 250 350"/><polygon class="cls-2" points="250 400 200 400 200 350 250 400"/><polygon class="cls-3" points="250 450 200 450 200 400 250 450"/><polygon class="cls-5" points="250 500 200 500 200 450 250 500"/><polygon class="cls-4" points="250 550 200 550 200 500 250 550"/><polygon class="cls-3" points="250 600 200 600 200 550 250 600"/><polygon class="cls-6" points="249.8 300 200 300 200 250.2 249.8 300"/><polygon class="cls-2" points="250 197.92 250 200 200 200 200 150 202.08 150 250 197.92"/><polygon class="cls-5" points="200 550 200 600 150 550 200 550"/><polygon class="cls-5" points="200 500 200 550 150 500 200 500"/><polygon class="cls-3" points="200 450 200 500 150 450 200 450"/><polygon class="cls-5" points="200 400 200 450 150 400 200 400"/><polygon class="cls-2" points="200 350 200 400 150 350 200 350"/><polygon class="cls-6" points="200 300 200 350 150 300 200 300"/><polygon class="cls-2" points="200 250.2 200 300 150 250 199.8 250 200 250.2"/><polygon class="cls-5" points="200 200 200 250 199.8 250 150 200.2 150 200 200 200"/><polygon class="cls-2" points="200 150 200 200 150 150 200 150"/><polygon class="cls-5" points="200 100 200 147.92 152.08 100 200 100"/><polygon class="cls-3" points="200 50 200 100 150 50 200 50"/><polygon class="cls-5" points="200 0 200 50 150 0 200 0"/><polygon class="cls-2" points="200 50 150 50 150 0 200 50"/><polygon class="cls-4" points="200 100 152.08 100 150 97.92 150 50 200 100"/><polygon class="cls-6" points="200 200 150 200 150 150 200 200"/><polygon class="cls-6" points="200 300 150 300 150 250 200 300"/><polygon class="cls-5" points="200 350 150 350 150 300 200 350"/><polygon class="cls-6" points="200 400 150 400 150 350 200 400"/><polygon class="cls-4" points="200 450 150 450 150 400 200 450"/><polygon class="cls-2" points="200 500 150 500 150 450 200 500"/><polygon class="cls-4" points="200 550 150 550 150 500 200 550"/><polygon class="cls-6" points="200 600 150 600 150 550 200 600"/><polygon class="cls-3" points="199.8 250 150 250 150 200.2 199.8 250"/><polygon class="cls-3" points="200 147.92 200 150 150 150 150 100 152.08 100 200 147.92"/><polygon class="cls-2" points="150 550 150 600 100 550 150 550"/><polygon class="cls-2" points="150 500 150 550 100 500 150 500"/><polygon class="cls-5" points="150 450 150 500 100 450 150 450"/><polygon class="cls-4" points="150 400 150 450 100 400 150 400"/><polygon class="cls-2" points="150 350 150 400 100 350 150 350"/><polygon class="cls-2" points="150 300 150 350 100 300 150 300"/><polygon class="cls-4" points="150 250 150 300 100 250 150 250"/><polygon class="cls-4" points="150 200.2 150 250 100 200 149.8 200 150 200.2"/><polygon class="cls-2" points="150 150 150 200 149.8 200 100 150.2 100 150 150 150"/><polygon class="cls-6" points="150 100 150 150 100 100 150 100"/><polygon class="cls-2" points="150 50 150 97.92 102.08 50 150 50"/><polygon class="cls-6" points="150 0 150 50 100 0 150 0"/><polygon class="cls-4" points="150 50 102.08 50 100 47.92 100 0 150 50"/><polygon class="cls-2" points="150 150 100 150 100 100 150 150"/><polygon class="cls-2" points="150 250 100 250 100 200 150 250"/><polygon class="cls-3" points="150 300 100 300 100 250 150 300"/><polygon class="cls-4" points="150 350 100 350 100 300 150 350"/><polygon class="cls-3" points="150 400 100 400 100 350 150 400"/><polygon class="cls-3" points="150 450 100 450 100 400 150 450"/><polygon class="cls-2" points="150 500 100 500 100 450 150 500"/><polygon class="cls-6" points="150 550 100 550 100 500 150 550"/><polygon class="cls-3" points="150 600 100 600 100 550 150 600"/><polygon class="cls-3" points="149.8 200 100 200 100 150.2 149.8 200"/><polygon class="cls-4" points="150 100 100 100 100 50 102.08 50 150 97.92 150 100"/><polygon class="cls-3" points="100 550 100 600 50 550 100 550"/><polygon class="cls-2" points="100 500 100 550 50 500 100 500"/><polygon class="cls-4" points="100 450 100 500 50 450 100 450"/><polygon class="cls-2" points="100 400 100 450 50 400 100 400"/><polygon class="cls-6" points="100 350 100 400 50 350 100 350"/><polygon class="cls-6" points="100 300 100 350 50 300 100 300"/><polygon class="cls-6" points="100 250 100 300 50 250 100 250"/><polygon class="cls-6" points="100 200 100 250 50 200 100 200"/><polygon class="cls-6" points="100 150.2 100 200 50 150 99.8 150 100 150.2"/><polygon class="cls-2" points="100 100 100 150 99.8 150 50 100.2 50 100 100 100"/><polygon class="cls-3" points="100 50 100 100 50 50 100 50"/><polygon class="cls-3" points="100 0 100 47.92 52.08 0 100 0"/><polygon class="cls-5" points="100 100 50 100 50 50 100 100"/><polygon class="cls-4" points="100 200 50 200 50 150 100 200"/><polygon class="cls-4" points="100 250 50 250 50 200 100 250"/><polygon class="cls-4" points="100 300 50 300 50 250 100 300"/><polygon class="cls-2" points="100 350 50 350 50 300 100 350"/><polygon class="cls-3" points="100 400 50 400 50 350 100 400"/><polygon class="cls-6" points="100 450 50 450 50 400 100 450"/><polygon class="cls-6" points="100 500 50 500 50 450 100 500"/><polygon class="cls-5" points="100 550 50 550 50 500 100 550"/><polygon class="cls-2" points="100 600 50 600 50 550 100 600"/><polygon class="cls-4" points="99.8 150 50 150 50 100.2 99.8 150"/><polygon class="cls-2" points="100 47.92 100 50 50 50 50 0 52.08 0 100 47.92"/><polygon class="cls-5" points="50 550 50 600 0 550 50 550"/><polygon class="cls-6" points="50 500 50 550 0 500 50 500"/><polygon class="cls-3" points="50 450 50 500 0 450 50 450"/><polygon class="cls-5" points="50 400 50 450 0 400 50 400"/><polygon class="cls-5" points="50 350 50 400 0 350 50 350"/><polygon class="cls-4" points="50 300 50 350 0 300 50 300"/><polygon class="cls-2" points="50 250 50 300 0 250 50 250"/><polygon class="cls-5" points="50 200 50 250 0 200 50 200"/><polygon class="cls-2" points="50 150 50 200 0 150 50 150"/><polygon class="cls-3" points="50 100.2 50 150 0 100 49.8 100 50 100.2"/><polygon class="cls-6" points="50 50 50 100 49.8 100 0 50.2 0 50 50 50"/><polygon class="cls-5" points="50 0 50 50 0 0 50 0"/><polygon class="cls-3" points="50 50 0 50 0 0 50 50"/><polygon class="cls-5" points="50 150 0 150 0 100 50 150"/><polygon class="cls-6" points="50 200 0 200 0 150 50 200"/><polygon class="cls-4" points="50 250 0 250 0 200 50 250"/><polygon class="cls-3" points="50 300 0 300 0 250 50 300"/><polygon class="cls-3" points="50 350 0 350 0 300 50 350"/><polygon class="cls-6" points="50 400 0 400 0 350 50 400"/><polygon class="cls-5" points="50 450 0 450 0 400 50 450"/><polygon class="cls-4" points="50 500 0 500 0 450 50 500"/><polygon class="cls-4" points="50 550 0 550 0 500 50 550"/><polygon class="cls-3" points="50 600 0 600 0 550 50 600"/><polygon class="cls-2" points="49.8 100 0 100 0 50.2 49.8 100"/></g></svg>